<svg xmlns="http://www.w3.org/2000/svg" version="1.1" xmlns:xlink="http://www.w3.org/1999/xlink" xmlns:svgjs="http://svgjs.dev/svgjs" viewBox="0 0 16.131356915880723 15.785502246562942"><g transform="matrix(0.8558035466070176,0,0,0.8558035466070176,2.3011489473338447,12.474622319733726)"><rect width="18.791095179417695" height="18.791095179417695" x="-2.6597382635369717" y="-14.749429581221834" fill="#ffffff"></rect><g transform="matrix(1,0,0,1,0,0)" clip-path="url(#SvgjsClipPath8444)"><g clip-path="url(#ae378ada0-0999-4186-b6f4-80f8a0ee2ccb1d1822e4-0e84-4317-9671-ce67c7413ed8)"><path d=" M 11.936093824876206 -3.1592763966665167 L 6.275011484409879 -0.27419791878589095 C 6.16605322075498 -0.2186605873917582 6.032703144443458 -0.2619635153982962 5.977160919992948 -0.37091928486536574 L 1.7274601787790822 -8.709637021942523 C 1.6719228473849514 -8.818595285597421 1.7152257753914895 -8.951945361908948 1.8241815448585577 -9.007487586359456 L 7.485355390874628 -11.89256606424008 C 7.594313654529528 -11.948103395634211 7.727663730841052 -11.904800467627673 7.78320595529156 -11.795844698160602 L 12.03281519095568 -3.457126961083448 C 12.088352522349812 -3.34816869742855 12.045049594343276 -3.2148186211170238 11.936093824876206 -3.1592763966665167" fill="#64b2e6" transform="matrix(1,0,0,1,0,0)" fill-rule="nonzero"></path></g><g clip-path="url(#SvgjsClipPath84391d1822e4-0e84-4317-9671-ce67c7413ed8)"><path d=" M 8.730626954627365 -7.05125319441658 L 5.316554893676298 -5.311275166033183 L 4.264149566069808 -7.376280907107498 L 7.678313132570616 -9.11616742994115 Z" fill="#ffffff" transform="matrix(1,0,0,1,0,0)" fill-rule="nonzero"></path></g><g clip-path="url(#be378ada0-0999-4186-b6f4-80f8a0ee2ccb1d1822e4-0e84-4317-9671-ce67c7413ed8)"><path d=" M 2.2860100544168542 -8.792724061110134 C 2.3152692021121455 -8.735268250275922 2.3116534590966533 -8.666567322156556 2.276524840787046 -8.612500251789008 C 2.241396222477439 -8.55843318142146 2.1800916017354552 -8.52721404309738 2.115703836157958 -8.530602784221864 C 2.05131607058046 -8.533991525346346 1.9936271935998466 -8.57147331552147 1.9643680471153457 -8.628929126972272 C 1.919137326280392 -8.717748114678876 1.9544725975220478 -8.826416874324378 2.0432915846560844 -8.871647596046312 C 2.132110571790121 -8.916878317768246 2.2407793318079405 -8.881543047671602 2.2860100544657342 -8.792724061014148" fill="#231f20" transform="matrix(1,0,0,1,0,0)" fill-rule="nonzero"></path></g><g clip-path="url(#be378ada0-0999-4186-b6f4-80f8a0ee2ccb1d1822e4-0e84-4317-9671-ce67c7413ed8)"><path d=" M 2.578187274749654 -8.219350286413823 C 2.607446422444945 -8.161894475579611 2.603830679429453 -8.093193547460245 2.568702061119846 -8.039126477092697 C 2.5335734428102388 -7.985059406725148 2.472268822068255 -7.95384026840107 2.4078810564907576 -7.957229009525554 C 2.3434932909132598 -7.9606177506500355 2.285804413932646 -7.99809954082516 2.2565452674481454 -8.055555352275961 C 2.211314546613192 -8.144374339982566 2.2466498178548475 -8.253043099628067 2.335468804988884 -8.298273821350001 C 2.4242877921229207 -8.343504543071935 2.5329565521407402 -8.308169272975292 2.578187274798534 -8.219350286317837" fill="#231f20" transform="matrix(1,0,0,1,0,0)" fill-rule="nonzero"></path></g><g clip-path="url(#be378ada0-0999-4186-b6f4-80f8a0ee2ccb1d1822e4-0e84-4317-9671-ce67c7413ed8)"><path d=" M 2.8704560006321973 -7.646068017267255 C 2.899715148327489 -7.588612206433044 2.896099405311997 -7.5199112783136774 2.8609707870023895 -7.465844207946129 C 2.825842168692782 -7.41177713757858 2.7645375479507988 -7.380557999254503 2.700149782373301 -7.383946740378985 C 2.6357620167958036 -7.387335481503468 2.5780731398151895 -7.424817271678592 2.548813993330689 -7.482273083129392 C 2.503583272495735 -7.5710920708359986 2.538918543737391 -7.6797608304815 2.6277375308714275 -7.724991552203433 C 2.716556518005464 -7.770222273925367 2.825225278023284 -7.734887003828723 2.8704560006810778 -7.646068017171269" fill="#231f20" transform="matrix(1,0,0,1,0,0)" fill-rule="nonzero"></path></g><g clip-path="url(#be378ada0-0999-4186-b6f4-80f8a0ee2ccb1d1822e4-0e84-4317-9671-ce67c7413ed8)"><path d=" M 3.162633220964997 -7.072694242570945 C 3.1918923686602887 -7.0152384317367344 3.1882766256447965 -6.9465375036173675 3.153148007335189 -6.8924704332498195 C 3.118019389025582 -6.8384033628822705 3.0567147682835984 -6.807184224558193 2.9923270027061006 -6.810572965682675 C 2.9279392371286033 -6.8139617068071585 2.8702503601479896 -6.851443496982282 2.840991213663489 -6.908899308433083 C 2.795760492828535 -6.997718296139689 2.8310957640701906 -7.1063870557851905 2.9199147512042276 -7.151617777507124 C 3.0087337383382637 -7.196848499229058 3.1174024983560837 -7.161513229132413 3.1626332210138774 -7.0726942424749595" fill="#231f20" transform="matrix(1,0,0,1,0,0)" fill-rule="nonzero"></path></g><g clip-path="url(#be378ada0-0999-4186-b6f4-80f8a0ee2ccb1d1822e4-0e84-4317-9671-ce67c7413ed8)"><path d=" M 3.4548104412977962 -6.499411973424377 C 3.484069588993088 -6.4419561625901665 3.4804538459775958 -6.3732552344708 3.4453252276679884 -6.3191881641032515 C 3.4101966093583815 -6.2651210937357025 3.3488919886163977 -6.233901955411625 3.2845042230389003 -6.237290696536107 C 3.220116457461402 -6.2406794376605905 3.162427580480789 -6.278161227835714 3.133168433996288 -6.335617039286515 C 3.0879377131613346 -6.424436026993121 3.1232729844029903 -6.5331047866386225 3.212091971537027 -6.578335508360556 C 3.3009109586710634 -6.62356623008249 3.4095797186888825 -6.588230959985845 3.4548104413466767 -6.4994119733283915" fill="#231f20" transform="matrix(1,0,0,1,0,0)" fill-rule="nonzero"></path></g><g clip-path="url(#be378ada0-0999-4186-b6f4-80f8a0ee2ccb1d1822e4-0e84-4317-9671-ce67c7413ed8)"><path d=" M 3.746987661630596 -5.926038198728065 C 3.776246809325887 -5.868582387893855 3.772631066310395 -5.799881459774488 3.7375024480007877 -5.74581438940694 C 3.7023738296911812 -5.691747319039391 3.6410692089491974 -5.660528180715313 3.5766814433716996 -5.663916921839795 C 3.5122936777942018 -5.667305662964279 3.4546048008135886 -5.704787453139402 3.4253456543290874 -5.762243264590204 C 3.380114933494134 -5.851062252296809 3.4154502047357895 -5.959731011942311 3.504269191869826 -6.004961733664245 C 3.5930881790038627 -6.050192455386179 3.7017569390216822 -6.014857185289533 3.746987661679476 -5.92603819863208" fill="#231f20" transform="matrix(1,0,0,1,0,0)" fill-rule="nonzero"></path></g><g clip-path="url(#be378ada0-0999-4186-b6f4-80f8a0ee2ccb1d1822e4-0e84-4317-9671-ce67c7413ed8)"><path d=" M 4.039164881963395 -5.3526644240317545 C 4.068424029658686 -5.295208613197544 4.064808286643194 -5.226507685078177 4.029679668333587 -5.172440614710629 C 3.9945510500239805 -5.11837354434308 3.9332464292819966 -5.087154406019002 3.868858663704499 -5.090543147143485 C 3.8044708981270015 -5.093931888267967 3.746782021146388 -5.131413678443091 3.717522874661887 -5.188869489893893 C 3.672292153826933 -5.277688477600498 3.707627425068589 -5.386357237246 3.796446412202626 -5.431587958967934 C 3.885265399336662 -5.476818680689868 3.9939341593544815 -5.441483410593222 4.039164882012275 -5.352664423935769" fill="#231f20" transform="matrix(1,0,0,1,0,0)" fill-rule="nonzero"></path></g><g clip-path="url(#be378ada0-0999-4186-b6f4-80f8a0ee2ccb1d1822e4-0e84-4317-9671-ce67c7413ed8)"><path d=" M 4.331342102296195 -4.7793821548851865 C 4.360601249991486 -4.721926344050976 4.3569855069759935 -4.653225415931609 4.321856888666387 -4.599158345564061 C 4.286728270356781 -4.545091275196512 4.225423649614797 -4.513872136872434 4.1610358840372985 -4.517260877996917 C 4.096648118459801 -4.520649619121399 4.038959241479187 -4.558131409296523 4.009700094994686 -4.615587220747325 C 3.9644693741597328 -4.70440620845393 3.999804645401389 -4.813074968099432 4.088623632535425 -4.858305689821366 C 4.177442619669462 -4.9035364115433 4.286111379687281 -4.868201141446654 4.331342102345075 -4.779382154789201" fill="#231f20" transform="matrix(1,0,0,1,0,0)" fill-rule="nonzero"></path></g><g clip-path="url(#be378ada0-0999-4186-b6f4-80f8a0ee2ccb1d1822e4-0e84-4317-9671-ce67c7413ed8)"><path d=" M 4.623519322628994 -4.206008380188875 C 4.652778470324286 -4.148552569354664 4.649162727308793 -4.079851641235297 4.614034108999187 -4.025784570867749 C 4.578905490689579 -3.9717175005002003 4.517600869947596 -3.9404983621761227 4.453213104370098 -3.9438871033006055 C 4.3888253387926 -3.9472758444250875 4.331136461811987 -3.9847576346002116 4.301877315327486 -4.042213446051013 C 4.256646594492532 -4.1310324337576185 4.291981865734188 -4.23970119340312 4.380800852868225 -4.284931915125054 C 4.469619840002261 -4.330162636846988 4.57828860002008 -4.294827366750343 4.623519322677874 -4.206008380092889" fill="#231f20" transform="matrix(1,0,0,1,0,0)" fill-rule="nonzero"></path></g><g clip-path="url(#be378ada0-0999-4186-b6f4-80f8a0ee2ccb1d1822e4-0e84-4317-9671-ce67c7413ed8)"><path d=" M 4.915696542961794 -3.6327261110423095 C 4.9449556906570855 -3.575270300208098 4.941339947641594 -3.506569372088732 4.9062113293319864 -3.452502301721184 C 4.87108271102238 -3.398435231353634 4.809778090280396 -3.3672160930295565 4.745390324702898 -3.37060483415404 C 4.6810025591254005 -3.373993575278522 4.623313682144786 -3.4114753654536454 4.594054535660286 -3.468931176904446 C 4.548823814825332 -3.5577501646110523 4.584159086066988 -3.666418924256554 4.672978073201024 -3.711649645978488 C 4.761797060335061 -3.756880367700422 4.870465820352881 -3.7215450976037765 4.915696543010674 -3.632726110946324" fill="#231f20" transform="matrix(1,0,0,1,0,0)" fill-rule="nonzero"></path></g><g clip-path="url(#be378ada0-0999-4186-b6f4-80f8a0ee2ccb1d1822e4-0e84-4317-9671-ce67c7413ed8)"><path d=" M 5.2079652688443385 -3.059352336345997 C 5.237224416539629 -3.0018965255117855 5.233608673524137 -2.9331955973924195 5.19848005521453 -2.8791285270248714 C 5.163351436904923 -2.8250614566573216 5.1020468161629395 -2.793842318333244 5.037659050585441 -2.7972310594577277 C 4.973271285007944 -2.8006198005822096 4.91558240802733 -2.8381015907573346 4.886323261542829 -2.8955574022081354 C 4.841092540707876 -2.9843763899147415 4.876427811949531 -3.0930451495602416 4.965246799083568 -3.1382758712821754 C 5.054065786217604 -3.1835065930041093 5.162734546235424 -3.1481713229074657 5.2079652688932185 -3.0593523362500132" fill="#231f20" transform="matrix(1,0,0,1,0,0)" fill-rule="nonzero"></path></g><g clip-path="url(#be378ada0-0999-4186-b6f4-80f8a0ee2ccb1d1822e4-0e84-4317-9671-ce67c7413ed8)"><path d=" M 5.500142489177137 -2.48607006719943 C 5.529401636872429 -2.4286142563652167 5.525785893856937 -2.3599133282458524 5.4906572755473295 -2.3058462578783043 C 5.455528657237723 -2.2517791875107545 5.394224036495739 -2.220560049186677 5.329836270918241 -2.2239487903111606 C 5.265448505340744 -2.2273375314356425 5.2077596283601295 -2.2648193216107657 5.178500481875629 -2.3222751330615683 C 5.133269761040676 -2.4110941207681726 5.168605032282331 -2.5197628804136745 5.2574240194163675 -2.5649936021356083 C 5.346243006550404 -2.6102243238575404 5.454911766568224 -2.5748890537608986 5.500142489226017 -2.4860700671034444" fill="#231f20" transform="matrix(1,0,0,1,0,0)" fill-rule="nonzero"></path></g><g clip-path="url(#be378ada0-0999-4186-b6f4-80f8a0ee2ccb1d1822e4-0e84-4317-9671-ce67c7413ed8)"><path d=" M 5.792228203960194 -1.9126962925031172 C 5.821487351655486 -1.8552404816689059 5.817871608639994 -1.7865395535495399 5.782742990330386 -1.7324724831819918 C 5.747614372020779 -1.6784054128144419 5.686309751278796 -1.6471862744903643 5.621921985701298 -1.650575015614848 C 5.5575342201238005 -1.65396375673933 5.499845343143186 -1.691445546914455 5.470586196658686 -1.7489013583652557 C 5.425355475823732 -1.8377203460718619 5.460690747065388 -1.946389105717362 5.549509734199424 -1.9916198274392958 C 5.638328721333461 -2.0368505491612297 5.746997481351281 -2.001515279064586 5.792228204009074 -1.9126962924071336" fill="#231f20" transform="matrix(1,0,0,1,0,0)" fill-rule="nonzero"></path></g><g clip-path="url(#be378ada0-0999-4186-b6f4-80f8a0ee2ccb1d1822e4-0e84-4317-9671-ce67c7413ed8)"><path d=" M 6.084496929842737 -1.3393225178068064 C 6.113756077538029 -1.2818667069725933 6.110140334522536 -1.213165778853229 6.075011716212929 -1.159098708485681 C 6.039883097903322 -1.105031638118131 5.978578477161339 -1.0738124997940535 5.91419071158384 -1.0772012409185372 C 5.849802946006342 -1.0805899820430191 5.792114069025729 -1.1180717722181424 5.762854922541228 -1.175527583668945 C 5.717624201706275 -1.2643465713755493 5.75295947294793 -1.373015331021051 5.841778460081967 -1.418246052742985 C 5.9305974472160035 -1.463476774464917 6.0392662072338235 -1.4281415043682752 6.084496929891617 -1.339322517710821" fill="#231f20" transform="matrix(1,0,0,1,0,0)" fill-rule="nonzero"></path></g><g clip-path="url(#be378ada0-0999-4186-b6f4-80f8a0ee2ccb1d1822e4-0e84-4317-9671-ce67c7413ed8)"><path d=" M 6.376674150175536 -0.7660402486602393 C 6.4059332978708285 -0.708584437826028 6.402317554855336 -0.639883509706662 6.367188936545729 -0.5858164393391139 C 6.332060318236121 -0.531749368971564 6.270755697494138 -0.5005302306474881 6.20636793191664 -0.5039189717719701 C 6.141980166339142 -0.507307712896452 6.084291289358529 -0.544789503071577 6.055032142874028 -0.6022453145223796 C 6.009801422039074 -0.691064302228984 6.04513669328073 -0.799733061874484 6.133955680414767 -0.8449637835964179 C 6.222774667548803 -0.8901945053183518 6.331443427566623 -0.8548592352217081 6.376674150224416 -0.7660402485642557" fill="#231f20" transform="matrix(1,0,0,1,0,0)" fill-rule="nonzero"></path></g><g clip-path="url(#be378ada0-0999-4186-b6f4-80f8a0ee2ccb1d1822e4-0e84-4317-9671-ce67c7413ed8)"><path d=" M 2.1541505572356563 -8.62426234403131 L 1.5457301569873683 -8.314241541498419 C 1.5170267704147418 -8.299611967526968 1.4826989626306566 -8.30140675829984 1.4556776867894503 -8.318949833493123 C 1.428656410948244 -8.336492908686408 1.4130468417234698 -8.367119057804382 1.4147289528575384 -8.399291706707704 C 1.416411063991607 -8.431464355611027 1.4351293027835186 -8.460295713499765 1.463832689733728 -8.474925286730391 L 2.0722530902147183 -8.785037594931632 C 2.1165290314919214 -8.806842948017582 2.170108862721295 -8.789026351997418 2.1925104852830586 -8.7450490884879 C 2.2149121078448224 -8.701071824978381 2.197821113402587 -8.64725614587564 2.154150557235657 -8.62426234403131" fill="#bdbcbc" transform="matrix(1,0,0,1,0,0)" fill-rule="nonzero"></path></g><g clip-path="url(#be378ada0-0999-4186-b6f4-80f8a0ee2ccb1d1822e4-0e84-4317-9671-ce67c7413ed8)"><path d=" M 1.7561014158489736 -7.901643017702429 L 2.3645218160972616 -8.211663820235321 C 2.393225202669888 -8.22629339420677 2.4275530104539733 -8.224498603433899 2.4545742862951796 -8.206955528240615 C 2.481595562136386 -8.189412453047332 2.4972051313611603 -8.158786303929356 2.4955230202270915 -8.126613655026034 C 2.493840909093023 -8.094441006122713 2.4751226703011113 -8.065609648233975 2.4464192833509024 -8.050980075003347 L 1.8379988828699119 -7.740867766802107 C 1.7937229415927087 -7.719062413716157 1.7401431103633354 -7.736879009736322 1.7177414878015718 -7.780856273245839 C 1.6953398652398084 -7.8248335367553565 1.7124308596820437 -7.8786492158581 1.7561014158489732 -7.901643017702429" fill="#bdbcbc" transform="matrix(1,0,0,1,0,0)" fill-rule="nonzero"></path></g><g clip-path="url(#be378ada0-0999-4186-b6f4-80f8a0ee2ccb1d1822e4-0e84-4317-9671-ce67c7413ed8)"><path d=" M 2.0482786361817733 -7.328269243006117 L 2.6566990364300613 -7.63829004553901 C 2.685402423002688 -7.6529196195104605 2.719730230786773 -7.651124828737586 2.7467515066279793 -7.633581753544304 C 2.7737727824691856 -7.616038678351019 2.78938235169396 -7.585412529233045 2.787700240559891 -7.5532398803297225 C 2.786018129425823 -7.5210672314264 2.767299890633911 -7.4922358735376635 2.7385965036837017 -7.477606300307035 L 2.1301761032027113 -7.167493992105795 C 2.085900161925508 -7.145688639019847 2.032320330696135 -7.16350523504001 2.0099187081343715 -7.207482498549528 C 1.987517085572608 -7.251459762059046 2.004608080014843 -7.305275441161787 2.048278636181773 -7.328269243006117" fill="#bdbcbc" transform="matrix(1,0,0,1,0,0)" fill-rule="nonzero"></path></g><g clip-path="url(#be378ada0-0999-4186-b6f4-80f8a0ee2ccb1d1822e4-0e84-4317-9671-ce67c7413ed8)"><path d=" M 2.3404558565145726 -6.75498697385955 L 2.948876256762861 -7.065007776392443 C 2.9775796433354875 -7.079637350363893 3.0119074511195727 -7.077842559591019 3.038928726960779 -7.060299484397737 C 3.0659500028019853 -7.042756409204452 3.0815595720267597 -7.012130260086478 3.079877460892691 -6.979957611183155 C 3.078195349758622 -6.947784962279834 3.0594771109667107 -6.918953604391096 3.0307737240165014 -6.904324031160468 L 2.422353323535511 -6.594211722959228 C 2.378077382258308 -6.5724063698732795 2.3244975510289345 -6.590222965893443 2.302095928467171 -6.6342002294029605 C 2.279694305905408 -6.678177492912479 2.2967853003476426 -6.731993172015221 2.3404558565145726 -6.75498697385955" fill="#bdbcbc" transform="matrix(1,0,0,1,0,0)" fill-rule="nonzero"></path></g><g clip-path="url(#be378ada0-0999-4186-b6f4-80f8a0ee2ccb1d1822e4-0e84-4317-9671-ce67c7413ed8)"><path d=" M 2.6325415712976286 -6.181613199163238 L 3.240961971545917 -6.491634001696132 C 3.2696653581185426 -6.506263575667582 3.3039931659026287 -6.504468784894708 3.3310144417438345 -6.486925709701425 C 3.3580357175850404 -6.469382634508141 3.373645286809815 -6.438756485390166 3.3719631756757464 -6.406583836486844 C 3.370281064541678 -6.374411187583522 3.3515628257497663 -6.345579829694785 3.322859438799557 -6.330950256464156 L 2.7144390383185666 -6.020837948262916 C 2.6701630970413635 -5.999032595176968 2.61658326581199 -6.016849191197132 2.5941816432502267 -6.060826454706649 C 2.5717800206884633 -6.104803718216167 2.5888710151306986 -6.158619397318909 2.6325415712976277 -6.181613199163238" fill="#bdbcbc" transform="matrix(1,0,0,1,0,0)" fill-rule="nonzero"></path></g><g clip-path="url(#be378ada0-0999-4186-b6f4-80f8a0ee2ccb1d1822e4-0e84-4317-9671-ce67c7413ed8)"><path d=" M 2.924810297180172 -5.608239424466928 L 3.5332306974284604 -5.918260226999821 C 3.561934084001087 -5.932889800971271 3.5962618917851716 -5.931095010198397 3.6232831676263784 -5.913551935005114 C 3.6503044434675846 -5.89600885981183 3.665914012692359 -5.865382710693855 3.66423190155829 -5.833210061790533 C 3.662549790424222 -5.8010374128872115 3.64383155163231 -5.772206054998474 3.6151281646821003 -5.757576481767846 L 3.00670776420111 -5.4474641735666065 C 2.9624318229239073 -5.425658820480657 2.908851991694534 -5.443475416500821 2.8864503691327705 -5.487452680010338 C 2.864048746571007 -5.531429943519856 2.881139741013242 -5.585245622622598 2.924810297180172 -5.608239424466928" fill="#bdbcbc" transform="matrix(1,0,0,1,0,0)" fill-rule="nonzero"></path></g><g clip-path="url(#be378ada0-0999-4186-b6f4-80f8a0ee2ccb1d1822e4-0e84-4317-9671-ce67c7413ed8)"><path d=" M 3.2169875175129716 -5.0349571553203605 L 3.82540791776126 -5.344977957853254 C 3.854111304333886 -5.359607531824704 3.8884391121179718 -5.35781274105183 3.9154603879591776 -5.340269665858547 C 3.942481663800384 -5.322726590665263 3.9580912330251583 -5.292100441547288 3.9564091218910895 -5.259927792643966 C 3.954727010757021 -5.227755143740644 3.9360087719651093 -5.198923785851907 3.9073053850149 -5.184294212621279 L 3.2988849845339097 -4.874181904420039 C 3.2546090432567065 -4.85237655133409 3.2010292120273336 -4.870193147354254 3.1786275894655702 -4.914170410863771 C 3.1562259669038064 -4.958147674373289 3.1733169613460417 -5.011963353476031 3.216987517512971 -5.0349571553203605" fill="#bdbcbc" transform="matrix(1,0,0,1,0,0)" fill-rule="nonzero"></path></g><g clip-path="url(#be378ada0-0999-4186-b6f4-80f8a0ee2ccb1d1822e4-0e84-4317-9671-ce67c7413ed8)"><path d=" M 3.5091647378457713 -4.461583380624049 L 4.117585138094059 -4.771604183156942 C 4.146288524666685 -4.786233757128392 4.1806163324507715 -4.784438966355518 4.207637608291977 -4.766895891162235 C 4.234658884133184 -4.749352815968951 4.2502684533579576 -4.718726666850976 4.24858634222389 -4.686554017947654 C 4.246904231089821 -4.654381369044333 4.2281859922979095 -4.625550011155595 4.199482605347701 -4.6109204379249675 L 3.5910622048667094 -4.300808129723728 C 3.546786263589506 -4.279002776637778 3.493206432360133 -4.296819372657942 3.4708048097983695 -4.340796636167459 C 3.448403187236606 -4.384773899676977 3.465494181678841 -4.43858957877972 3.5091647378457704 -4.461583380624049" fill="#bdbcbc" transform="matrix(1,0,0,1,0,0)" fill-rule="nonzero"></path></g><g clip-path="url(#be378ada0-0999-4186-b6f4-80f8a0ee2ccb1d1822e4-0e84-4317-9671-ce67c7413ed8)"><path d=" M 3.8014334637283147 -3.888209605927738 L 4.409853863976602 -4.19823040846063 C 4.438557250549229 -4.2128599824320805 4.472885058333315 -4.211065191659206 4.49990633417452 -4.193522116465924 C 4.526927610015727 -4.175979041272639 4.542537179240501 -4.145352892154665 4.540855068106433 -4.1131802432513425 C 4.539172956972364 -4.081007594348021 4.520454718180453 -4.0521762364592835 4.491751331230244 -4.037546663228656 L 3.8833309307492527 -3.727434355027416 C 3.8390549894720496 -3.7056290019414657 3.785475158242676 -3.7234455979616303 3.7630735356809124 -3.7674228614711485 C 3.740671913119149 -3.8114001249806666 3.7577629075613843 -3.865215804083407 3.8014334637283143 -3.888209605927738" fill="#bdbcbc" transform="matrix(1,0,0,1,0,0)" fill-rule="nonzero"></path></g><g clip-path="url(#be378ada0-0999-4186-b6f4-80f8a0ee2ccb1d1822e4-0e84-4317-9671-ce67c7413ed8)"><path d=" M 4.093610684061114 -3.314927336781171 L 4.702031084309402 -3.6249481393140623 C 4.7307344708820285 -3.6395777132855134 4.7650622786661145 -3.63778292251264 4.79208355450732 -3.6202398473193576 C 4.819104830348527 -3.602696772126073 4.834714399573301 -3.5720706230080985 4.833032288439233 -3.5398979741047754 C 4.831350177305164 -3.507725325201454 4.8126319385132525 -3.4788939673127164 4.783928551563044 -3.464264394082088 L 4.175508151082052 -3.154152085880847 C 4.13123220980485 -3.1323467327948986 4.0776523785754755 -3.1501633288150632 4.055250756013713 -3.1941405923245814 C 4.032849133451949 -3.2381178558340977 4.0499401278941844 -3.2919335349368417 4.0936106840611135 -3.314927336781171" fill="#bdbcbc" transform="matrix(1,0,0,1,0,0)" fill-rule="nonzero"></path></g><g clip-path="url(#be378ada0-0999-4186-b6f4-80f8a0ee2ccb1d1822e4-0e84-4317-9671-ce67c7413ed8)"><path d=" M 4.385787904393913 -2.741645067634604 L 4.994208304642202 -3.0516658701674952 C 5.022911691214828 -3.0662954441389463 5.057239498998913 -3.064500653366073 5.08426077484012 -3.0469575781727904 C 5.111282050681326 -3.029414502979506 5.1268916199061 -2.9987883538615314 5.1252095087720315 -2.96661570495821 C 5.123527397637963 -2.9344430560548886 5.104809158846052 -2.905611698166151 5.076105771895842 -2.8909821249355208 L 4.467685371414852 -2.580869816734282 C 4.423409430137649 -2.5590644636483333 4.369829598908275 -2.576881059668498 4.347427976346512 -2.620858323178016 C 4.325026353784748 -2.6648355866875324 4.342117348226983 -2.7186512657902746 4.385787904393913 -2.741645067634604" fill="#bdbcbc" transform="matrix(1,0,0,1,0,0)" fill-rule="nonzero"></path></g><g clip-path="url(#be378ada0-0999-4186-b6f4-80f8a0ee2ccb1d1822e4-0e84-4317-9671-ce67c7413ed8)"><path d=" M 4.677965124726713 -2.1682712929382912 L 5.286385524975001 -2.4782920954711827 C 5.315088911547628 -2.492921669442632 5.349416719331712 -2.4911268786697605 5.376437995172919 -2.473583803476476 C 5.403459271014125 -2.4560407282831918 5.4190688402389 -2.425414579165219 5.417386729104831 -2.3932419302618957 C 5.415704617970762 -2.3610692813585743 5.39698637917885 -2.3322379234698367 5.368282992228641 -2.317608350239208 L 4.759862591747651 -2.0074960420379675 C 4.715586650470448 -1.985690688952019 4.662006819241075 -2.0035072849721836 4.639605196679311 -2.0474845484817017 C 4.617203574117548 -2.091461811991218 4.634294568559783 -2.145277491093962 4.677965124726713 -2.1682712929382912" fill="#bdbcbc" transform="matrix(1,0,0,1,0,0)" fill-rule="nonzero"></path></g><g clip-path="url(#be378ada0-0999-4186-b6f4-80f8a0ee2ccb1d1822e4-0e84-4317-9671-ce67c7413ed8)"><path d=" M 4.970142345059513 -1.5948975182419804 L 5.578562745307801 -1.9049183207748719 C 5.6072661318804276 -1.919547894746323 5.641593939664513 -1.9177531039734497 5.668615215505719 -1.900210028780167 C 5.695636491346925 -1.8826669535868827 5.7112460605717 -1.852040804468908 5.709563949437631 -1.8198681555655867 C 5.707881838303562 -1.7876955066622653 5.689163599511652 -1.7588641487735277 5.660460212561442 -1.7442345755428974 L 5.0520398120804515 -1.4341222673416585 C 5.007763870803249 -1.41231691425571 4.9541840395738745 -1.4301335102758745 4.931782417012111 -1.4741107737853927 C 4.909380794450348 -1.518088037294909 4.926471788892583 -1.5719037163976513 4.970142345059513 -1.5948975182419804" fill="#bdbcbc" transform="matrix(1,0,0,1,0,0)" fill-rule="nonzero"></path></g><g clip-path="url(#be378ada0-0999-4186-b6f4-80f8a0ee2ccb1d1822e4-0e84-4317-9671-ce67c7413ed8)"><path d=" M 5.262411070942056 -1.0216152490954133 L 5.870831471190344 -1.3316360516283048 C 5.899534857762971 -1.346265625599754 5.933862665547056 -1.3444708348268826 5.9608839413882615 -1.3269277596335982 C 5.987905217229468 -1.3093846844403156 6.003514786454243 -1.278758535322341 6.001832675320174 -1.2465858864190196 C 6.0001505641861055 -1.2144132375156964 5.981432325394194 -1.1855818796269588 5.952728938443985 -1.1709523063963303 L 5.344308537962994 -0.8608399981950896 C 5.300032596685791 -0.839034645109141 5.246452765456418 -0.8568512411293057 5.224051142894654 -0.9008285046388238 C 5.201649520332891 -0.9448057681483402 5.218740514775126 -0.9986214472510841 5.262411070942056 -1.0216152490954133" fill="#bdbcbc" transform="matrix(1,0,0,1,0,0)" fill-rule="nonzero"></path></g><g clip-path="url(#be378ada0-0999-4186-b6f4-80f8a0ee2ccb1d1822e4-0e84-4317-9671-ce67c7413ed8)"><path d=" M 6.244814652994339 -0.5976700371311594 L 5.636394252746051 -0.28764923459826797 C 5.59232494641311 -0.2669881849799953 5.539811057997572 -0.28500575119927873 5.517708984944715 -0.3283702654795224 C 5.4956069118918585 -0.37173477975976255 5.511884167704842 -0.42481389158526817 5.554496785725112 -0.44833297994884447 L 6.1629171859734 -0.7584452880314831 C 6.207193127250604 -0.7802506411174317 6.260772958479978 -0.7624340450972671 6.283174581041742 -0.7184567815877507 C 6.305576203603505 -0.6744795180782326 6.28848520916127 -0.6206638389754886 6.244814652994339 -0.5976700371311594" fill="#bdbcbc" transform="matrix(1,0,0,1,0,0)" fill-rule="nonzero"></path></g><g clip-path="url(#SvgjsClipPath84391d1822e4-0e84-4317-9671-ce67c7413ed8)"><path d=" M 8.528307678345044 -7.1231081069903865 L 5.369353090080432 -5.5132509703430514 L 4.458598353477754 -7.300262851294897 L 7.617552941742366 -8.910211493491976 Z M 5.3908568942702875 -5.5794094828080105 L 8.462149165880085 -7.144611911180242 L 7.5960491375525105 -8.844052981027017 L 4.524848371492456 -7.278850552654785 Z" fill="#00adef" transform="matrix(1,0,0,1,0,0)" fill-rule="nonzero"></path></g></g><g><path d=" M 0.0465 0.9299999999999999 L 0.1635 0.9299999999999999 L 0.1635 0.28049999999999997 L 0.0465 0.28049999999999997 L 0.0465 0.022499999999999964 L 0.5865 0.022499999999999964 Q 0.9045 0.022499999999999964 1.07325 0.16949999999999998 Q 1.242 0.3164999999999999 1.242 0.6044999999999999 Q 1.242 0.885 1.074 1.0365 Q 0.906 1.188 0.585 1.188 L 0.0465 1.188 L 0.0465 0.9299999999999999 M 0.585 0.9299999999999999 Q 0.708 0.9299999999999999 0.76425 0.83775 Q 0.8205 0.7454999999999999 0.8205 0.6044999999999999 Q 0.8205 0.4604999999999999 0.765 0.37049999999999994 Q 0.7095 0.28049999999999997 0.585 0.28049999999999997 L 0.5385 0.28049999999999997 L 0.5385 0.9299999999999999 L 0.585 0.9299999999999999 M 1.4159721679687503 0.9299999999999999 L 1.5329721679687502 0.9299999999999999 L 1.5329721679687502 0.28049999999999997 L 1.4159721679687503 0.28049999999999997 L 1.4159721679687503 0.022499999999999964 L 2.16447216796875 0.022499999999999964 Q 2.34597216796875 0.022499999999999964 2.4314721679687503 0.09599999999999986 Q 2.51697216796875 0.16949999999999998 2.51697216796875 0.33899999999999997 Q 2.51697216796875 0.45299999999999996 2.4532221679687503 0.5145 Q 2.3894721679687505 0.576 2.2724721679687505 0.597 Q 2.37747216796875 0.6134999999999999 2.42397216796875 0.67575 Q 2.47047216796875 0.738 2.47047216796875 0.831 L 2.47047216796875 0.9255 L 2.63397216796875 0.9255 L 2.63397216796875 1.188 L 2.39847216796875 1.188 Q 2.28447216796875 1.188 2.23497216796875 1.173 Q 2.1854721679687503 1.158 2.15922216796875 1.0905 Q 2.13297216796875 1.023 2.13297216796875 0.8654999999999999 Q 2.13297216796875 0.7754999999999999 2.1037221679687503 0.732 Q 2.07447216796875 0.6884999999999999 1.9964721679687503 0.6884999999999999 L 1.9079721679687502 0.6884999999999999 L 1.9079721679687502 0.9299999999999999 L 2.02497216796875 0.9299999999999999 L 2.02497216796875 1.188 L 1.4159721679687503 1.188 L 1.4159721679687503 0.9299999999999999 M 2.0084721679687503 0.5219999999999999 Q 2.08797216796875 0.5219999999999999 2.1269721679687503 0.49349999999999994 Q 2.16597216796875 0.46499999999999997 2.16597216796875 0.3929999999999999 Q 2.16597216796875 0.3404999999999999 2.1262221679687503 0.3104999999999999 Q 2.08647216796875 0.28049999999999997 2.0234721679687504 0.28049999999999997 L 1.9079721679687502 0.28049999999999997 L 1.9079721679687502 0.5219999999999999 L 2.0084721679687503 0.5219999999999999 M 2.6955 1.188 L 2.6955 0.9299999999999999 L 2.8365 0.9299999999999999 L 2.8365 0.28049999999999997 L 2.6955 0.28049999999999997 L 2.6955 0.022499999999999964 L 3.6795 0.022499999999999964 L 3.6795 0.4859999999999999 L 3.492 0.4859999999999999 L 3.4215 0.28049999999999997 L 3.2115 0.28049999999999997 L 3.2115 0.471 L 3.399 0.471 L 3.399 0.6629999999999999 L 3.2115 0.6629999999999999 L 3.2115 0.9299999999999999 L 3.4215 0.9299999999999999 L 3.492 0.6915 L 3.6795 0.6915 L 3.6795 1.188 L 2.6955 1.188 M 3.71101171875 1.188 L 3.71101171875 0.9299999999999999 L 3.82651171875 0.9299999999999999 L 4.0275117187500005 0.28049999999999997 L 3.87451171875 0.28049999999999997 L 3.87451171875 0.022499999999999964 L 4.60051171875 0.022499999999999964 L 4.86001171875 0.9299999999999999 L 4.97551171875 0.9299999999999999 L 4.97551171875 1.188 L 4.32001171875 1.188 L 4.32001171875 0.9299999999999999 L 4.41451171875 0.9299999999999999 L 4.38301171875 0.8054999999999999 L 4.11901171875 0.8054999999999999 L 4.08601171875 0.9299999999999999 L 4.22551171875 0.9299999999999999 L 4.22551171875 1.188 L 3.71101171875 1.188 M 4.15651171875 0.6285 L 4.34851171875 0.6285 L 4.2630117187500005 0.27149999999999996 L 4.15651171875 0.6285 M 5.02202490234375 1.188 L 5.02202490234375 0.9299999999999999 L 5.16302490234375 0.9299999999999999 L 5.16302490234375 0.28049999999999997 L 5.02202490234375 0.28049999999999997 L 5.02202490234375 0.022499999999999964 L 5.65052490234375 0.022499999999999964 L 5.87702490234375 0.5834999999999999 L 6.10052490234375 0.022499999999999964 L 6.68702490234375 0.022499999999999964 L 6.68702490234375 0.28049999999999997 L 6.54602490234375 0.28049999999999997 L 6.54602490234375 0.9299999999999999 L 6.68702490234375 0.9299999999999999 L 6.68702490234375 1.188 L 6.07652490234375 1.188 L 6.07652490234375 0.9299999999999999 L 6.17102490234375 0.9299999999999999 L 6.17102490234375 0.4949999999999999 L 5.91302490234375 1.188 L 5.70152490234375 1.188 L 5.39702490234375 0.4784999999999999 L 5.39702490234375 0.9299999999999999 L 5.51402490234375 0.9299999999999999 L 5.51402490234375 1.188 L 5.02202490234375 1.188 M 7.06804541015625 0.9299999999999999 L 7.20904541015625 0.9299999999999999 L 7.20904541015625 0.28049999999999997 L 7.08754541015625 0.28049999999999997 L 7.08754541015625 0.020999999999999908 L 7.68304541015625 0.020999999999999908 Q 7.83004541015625 0.020999999999999908 7.93054541015625 0.04499999999999993 Q 8.03104541015625 0.06899999999999995 8.09029541015625 0.13649999999999984 Q 8.14954541015625 0.20399999999999996 8.14954541015625 0.3284999999999999 Q 8.14954541015625 0.4155 8.09929541015625 0.48 Q 8.04904541015625 0.5445 7.9710454101562505 0.573 Q 8.07304541015625 0.6164999999999999 8.121795410156249 0.6862499999999999 Q 8.170545410156251 0.756 8.170545410156251 0.8775 Q 8.170545410156251 1.026 8.05429541015625 1.107 Q 7.93804541015625 1.188 7.72504541015625 1.188 L 7.06804541015625 1.188 L 7.06804541015625 0.9299999999999999 M 7.62454541015625 0.4919999999999999 Q 7.70854541015625 0.4919999999999999 7.74829541015625 0.4687499999999999 Q 7.78804541015625 0.4454999999999999 7.78804541015625 0.3809999999999999 Q 7.78804541015625 0.33599999999999997 7.76029541015625 0.3082499999999999 Q 7.73254541015625 0.28049999999999997 7.68754541015625 0.28049999999999997 L 7.58404541015625 0.28049999999999997 L 7.58404541015625 0.4919999999999999 L 7.62454541015625 0.4919999999999999 M 7.61104541015625 0.9299999999999999 Q 7.69954541015625 0.9299999999999999 7.74754541015625 0.9052499999999999 Q 7.79554541015625 0.8805 7.79554541015625 0.8025 Q 7.79554541015625 0.6824999999999999 7.64854541015625 0.6824999999999999 Q 7.61554541015625 0.6824999999999999 7.58404541015625 0.6839999999999999 L 7.58404541015625 0.9299999999999999 L 7.61104541015625 0.9299999999999999 M 8.57182763671875 1.131 Q 8.43907763671875 1.053 8.37007763671875 0.91575 Q 8.30107763671875 0.7785 8.30107763671875 0.603 Q 8.30107763671875 0.4214999999999999 8.37007763671875 0.2849999999999999 Q 8.43907763671875 0.14849999999999985 8.57107763671875 0.07424999999999993 Q 8.70307763671875 0 8.88757763671875 0 Q 9.07207763671875 0 9.20407763671875 0.07424999999999993 Q 9.33607763671875 0.14849999999999985 9.405077636718751 0.2849999999999999 Q 9.47407763671875 0.4214999999999999 9.47407763671875 0.603 Q 9.47407763671875 0.7785 9.405077636718751 0.91575 Q 9.33607763671875 1.053 9.20332763671875 1.131 Q 9.07057763671875 1.2089999999999999 8.88757763671875 1.2089999999999999 Q 8.70457763671875 1.2089999999999999 8.57182763671875 1.131 M 9.00907763671875 0.8534999999999999 Q 9.05107763671875 0.7575 9.05107763671875 0.597 Q 9.05107763671875 0.44099999999999995 9.01057763671875 0.35024999999999995 Q 8.97007763671875 0.25949999999999995 8.88757763671875 0.25949999999999995 Q 8.80507763671875 0.25949999999999995 8.76457763671875 0.35024999999999995 Q 8.72407763671875 0.44099999999999995 8.72407763671875 0.597 Q 8.72407763671875 0.7575 8.76607763671875 0.8534999999999999 Q 8.80807763671875 0.9494999999999999 8.88757763671875 0.9494999999999999 Q 8.96707763671875 0.9494999999999999 9.00907763671875 0.8534999999999999 M 9.58210546875 1.188 L 9.58210546875 0.9299999999999999 L 9.69760546875 0.9299999999999999 L 9.89860546875 0.28049999999999997 L 9.74560546875 0.28049999999999997 L 9.74560546875 0.022499999999999964 L 10.471605468749999 0.022499999999999964 L 10.73110546875 0.9299999999999999 L 10.846605468749999 0.9299999999999999 L 10.846605468749999 1.188 L 10.19110546875 1.188 L 10.19110546875 0.9299999999999999 L 10.28560546875 0.9299999999999999 L 10.25410546875 0.8054999999999999 L 9.99010546875 0.8054999999999999 L 9.957105468750001 0.9299999999999999 L 10.096605468749999 0.9299999999999999 L 10.096605468749999 1.188 L 9.58210546875 1.188 M 10.02760546875 0.6285 L 10.21960546875 0.6285 L 10.13410546875 0.27149999999999996 L 10.02760546875 0.6285 M 10.94111865234375 0.9299999999999999 L 11.05811865234375 0.9299999999999999 L 11.05811865234375 0.28049999999999997 L 10.94111865234375 0.28049999999999997 L 10.94111865234375 0.022499999999999964 L 11.68961865234375 0.022499999999999964 Q 11.87111865234375 0.022499999999999964 11.95661865234375 0.09599999999999986 Q 12.04211865234375 0.16949999999999998 12.04211865234375 0.33899999999999997 Q 12.04211865234375 0.45299999999999996 11.97836865234375 0.5145 Q 11.91461865234375 0.576 11.79761865234375 0.597 Q 11.902618652343751 0.6134999999999999 11.94911865234375 0.67575 Q 11.995618652343751 0.738 11.995618652343751 0.831 L 11.995618652343751 0.9255 L 12.15911865234375 0.9255 L 12.15911865234375 1.188 L 11.92361865234375 1.188 Q 11.80961865234375 1.188 11.760118652343749 1.173 Q 11.71061865234375 1.158 11.68436865234375 1.0905 Q 11.65811865234375 1.023 11.65811865234375 0.8654999999999999 Q 11.65811865234375 0.7754999999999999 11.62886865234375 0.732 Q 11.59961865234375 0.6884999999999999 11.52161865234375 0.6884999999999999 L 11.433118652343751 0.6884999999999999 L 11.433118652343751 0.9299999999999999 L 11.55011865234375 0.9299999999999999 L 11.55011865234375 1.188 L 10.94111865234375 1.188 L 10.94111865234375 0.9299999999999999 M 11.53361865234375 0.5219999999999999 Q 11.61311865234375 0.5219999999999999 11.65211865234375 0.49349999999999994 Q 11.69111865234375 0.46499999999999997 11.69111865234375 0.3929999999999999 Q 11.69111865234375 0.3404999999999999 11.65136865234375 0.3104999999999999 Q 11.61161865234375 0.28049999999999997 11.54861865234375 0.28049999999999997 L 11.433118652343751 0.28049999999999997 L 11.433118652343751 0.5219999999999999 L 11.53361865234375 0.5219999999999999 M 12.196646484375 0.9299999999999999 L 12.313646484375 0.9299999999999999 L 12.313646484375 0.28049999999999997 L 12.196646484375 0.28049999999999997 L 12.196646484375 0.022499999999999964 L 12.736646484375001 0.022499999999999964 Q 13.054646484375 0.022499999999999964 13.223396484375 0.16949999999999998 Q 13.392146484375 0.3164999999999999 13.392146484375 0.6044999999999999 Q 13.392146484375 0.885 13.224146484375 1.0365 Q 13.056146484375 1.188 12.735146484375 1.188 L 12.196646484375 1.188 L 12.196646484375 0.9299999999999999 M 12.735146484375 0.9299999999999999 Q 12.858146484375 0.9299999999999999 12.914396484375 0.83775 Q 12.970646484375 0.7454999999999999 12.970646484375 0.6044999999999999 Q 12.970646484375 0.4604999999999999 12.915146484375 0.37049999999999994 Q 12.859646484375 0.28049999999999997 12.735146484375 0.28049999999999997 L 12.688646484374999 0.28049999999999997 L 12.688646484374999 0.9299999999999999 L 12.735146484375 0.9299999999999999" fill="#231f20" fill-rule="nonzero"></path></g><g></g></g><defs><clipPath id="SvgjsClipPath8444"><path d=" M 1.4146055426021702 -11.916763983025971 h 10.64240756713941 v 11.666763983025971 h -10.64240756713941 Z"></path></clipPath><clipPath id="ae378ada0-0999-4186-b6f4-80f8a0ee2ccb1d1822e4-0e84-4317-9671-ce67c7413ed8"><path d=" M 1.414602704204123 -0.2499489481037127 L 12.05706416163786 -0.2499489481037127 L 12.05706416163786 -11.916723529372513 L 1.414602704204123 -11.916723529372513 Z"></path></clipPath><clipPath id="SvgjsClipPath84391d1822e4-0e84-4317-9671-ce67c7413ed8"><path d=" M 1.4146055426021702 -11.916763983025971 L 12.057013109741579 -11.916763983025971 L 12.057013109741579 -0.25 L 1.4146055426021702 -0.25 Z"></path></clipPath><clipPath id="be378ada0-0999-4186-b6f4-80f8a0ee2ccb1d1822e4-0e84-4317-9671-ce67c7413ed8"><path d=" M 1.414602704204123 -0.2499489481037127 L 12.05706416163786 -0.2499489481037127 L 12.05706416163786 -11.916723529372513 L 1.414602704204123 -11.916723529372513 Z"></path></clipPath></defs></svg>